<svg width="24" height="24" viewBox="0 0 24 24" fill="none" xmlns="http://www.w3.org/2000/svg">
<path d="M7.65006 20.91C7.62006 20.91 7.58006 20.93 7.55006 20.93C5.61006 19.97 4.03006 18.38 3.06006 16.44C3.06006 16.41 3.08006 16.37 3.08006 16.34C4.30006 16.7 5.56006 16.97 6.81006 17.18C7.03006 18.44 7.29006 19.69 7.65006 20.91Z" fill="#454BEA"/>
<path d="M20.94 16.45C19.95 18.44 18.3 20.05 16.29 21.02C16.67 19.75 16.99 18.47 17.2 17.18C18.46 16.97 19.7 16.7 20.92 16.34C20.91 16.38 20.94 16.42 20.94 16.45Z" fill="#454BEA"/>
<path d="M21.02 7.71C19.76 7.33 18.49 7.02 17.2 6.8C16.99 5.51 16.68 4.23 16.29 2.98C18.36 3.97 20.03 5.64 21.02 7.71Z" fill="#454BEA"/>
<path d="M7.64998 3.09C7.28998 4.31 7.02998 5.55 6.81998 6.81C5.52998 7.01 4.24998 7.33 2.97998 7.71C3.94998 5.7 5.55998 4.05 7.54998 3.06C7.57998 3.06 7.61998 3.09 7.64998 3.09Z" fill="#454BEA"/>
<path d="M15.4898 6.59C13.1698 6.33 10.8298 6.33 8.50977 6.59C8.75977 5.22 9.07977 3.85 9.52977 2.53C9.54977 2.45 9.53977 2.39 9.54977 2.31C10.3398 2.12 11.1498 2 11.9998 2C12.8398 2 13.6598 2.12 14.4398 2.31C14.4498 2.39 14.4498 2.45 14.4698 2.53C14.9198 3.86 15.2398 5.22 15.4898 6.59Z" fill="#454BEA"/>
<path d="M6.59 15.49C5.21 15.24 3.85 14.92 2.53 14.47C2.45 14.45 2.39 14.46 2.31 14.45C2.12 13.66 2 12.85 2 12C2 11.16 2.12 10.34 2.31 9.55999C2.39 9.54999 2.45 9.54999 2.53 9.52999C3.86 9.08999 5.21 8.75999 6.59 8.50999C6.34 10.83 6.34 13.17 6.59 15.49Z" fill="#454BEA"/>
<path d="M22.0002 12C22.0002 12.85 21.8802 13.66 21.6902 14.45C21.6102 14.46 21.5502 14.45 21.4702 14.47C20.1402 14.91 18.7802 15.24 17.4102 15.49C17.6702 13.17 17.6702 10.83 17.4102 8.50999C18.7802 8.75999 20.1502 9.07999 21.4702 9.52999C21.5502 9.54999 21.6102 9.55999 21.6902 9.55999C21.8802 10.35 22.0002 11.16 22.0002 12Z" fill="#454BEA"/>
<path d="M15.4898 17.41C15.2398 18.79 14.9198 20.15 14.4698 21.47C14.4498 21.55 14.4498 21.61 14.4398 21.69C13.6598 21.88 12.8398 22 11.9998 22C11.1498 22 10.3398 21.88 9.54977 21.69C9.53977 21.61 9.54977 21.55 9.52977 21.47C9.08977 20.14 8.75977 18.79 8.50977 17.41C9.66977 17.54 10.8298 17.63 11.9998 17.63C13.1698 17.63 14.3398 17.54 15.4898 17.41Z" fill="#454BEA"/>
<path d="M15.7633 15.7633C13.2622 16.0789 10.7378 16.0789 8.23667 15.7633C7.92111 13.2622 7.92111 10.7378 8.23667 8.23667C10.7378 7.92111 13.2622 7.92111 15.7633 8.23667C16.0789 10.7378 16.0789 13.2622 15.7633 15.7633Z" fill="#454BEA"/>
</svg>
